HIERARCHY
ROOT Hips
{
    OFFSET 0.000000 0.000000 0.000000
    CHANNELS 6 Xposition Yposition Zposition Zrotation Xrotation Yrotation
    JOINT Spine
    {
        OFFSET -0.000000 7.236184 0.000000
        CHANNELS 3 Zrotation Xrotation Yrotation
        JOINT Spine1
        {
            OFFSET -0.000000 20.420147 0.000000
            CHANNELS 3 Zrotation Xrotation Yrotation
            JOINT Neck
            {
                OFFSET -0.000000 20.336288 1.848754
                CHANNELS 3 Zrotation Xrotation Yrotation
                JOINT Head
                {
                    OFFSET -0.000000 12.354461 -1.764923
                    CHANNELS 3 Zrotation Xrotation Yrotation
                    End Site
                    {
                        OFFSET -0.000000 22.061537 0.000000
                    }
                }
            }
            JOINT LeftShoulder
            {
                OFFSET 3.573296 18.396038 -0.314103
                CHANNELS 3 Zrotation Xrotation Yrotation
                JOINT LeftArm
                {
                    OFFSET 10.880760 0.000000 0.000000
                    CHANNELS 3 Zrotation Xrotation Yrotation
                    JOINT LeftForeArm
                    {
                        OFFSET 27.185530 0.000000 0.000000
                        CHANNELS 3 Zrotation Xrotation Yrotation
                        JOINT LeftHand
                        {
                            OFFSET 27.825975 0.000000 0.000000
                            CHANNELS 3 Zrotation Xrotation Yrotation
                            End Site
                            {
                                OFFSET 13.236923 0.000000 0.000000
                            }
                        }
                    }
                }
            }
            JOINT RightShoulder
            {
                OFFSET -3.474926 18.396038 -0.314103
                CHANNELS 3 Zrotation Xrotation Yrotation
                JOINT RightArm
                {
                    OFFSET -10.880760 0.000000 0.000000
                    CHANNELS 3 Zrotation Xrotation Yrotation
                    JOINT RightForeArm
                    {
                        OFFSET -27.185530 0.000000 0.000000
                        CHANNELS 3 Zrotation Xrotation Yrotation
                        JOINT RightHand
                        {
                            OFFSET -27.825975 0.000000 0.000000
                            CHANNELS 3 Zrotation Xrotation Yrotation
                            End Site
                            {
                                OFFSET -13.236923 0.000000 0.000000
                            }
                        }
                    }
                }
            }
        }
    }
    JOINT LeftUpLeg
    {
        OFFSET 8.824615 0.000000 0.000000
        CHANNELS 3 Zrotation Xrotation Yrotation
        JOINT LeftLeg
        {
            OFFSET -0.000000 -35.111282 0.000000
            CHANNELS 3 Zrotation Xrotation Yrotation
            JOINT LeftFoot
            {
                OFFSET -0.000000 -42.324711 0.000000
                CHANNELS 3 Zrotation Xrotation Yrotation
                JOINT LeftToeBase
                {
                    OFFSET -0.000000 -5.735999 13.236923
                    CHANNELS 3 Zrotation Xrotation Yrotation
                    End Site
                    {
                        OFFSET -0.000000 0.000000 3.529846
                    }
                }
            }
        }
    }
    JOINT RightUpLeg
    {
        OFFSET -8.824615 0.000000 0.000000
        CHANNELS 3 Zrotation Xrotation Yrotation
        JOINT RightLeg
        {
            OFFSET -0.000000 -35.111282 0.000000
            CHANNELS 3 Zrotation Xrotation Yrotation
            JOINT RightFoot
            {
                OFFSET -0.000000 -42.324711 0.000000
                CHANNELS 3 Zrotation Xrotation Yrotation
                JOINT RightToeBase
                {
                    OFFSET -0.000000 -5.735999 13.236923
                    CHANNELS 3 Zrotation Xrotation Yrotation
                    End Site
                    {
                        OFFSET -0.000000 0.000000 3.529846
                    }
                }
            }
        }
    }
}
MOTION
Frames:    7
Frame Time:    0.008333
-10.979232    85.307144    102.839256    1.628639    -9.972743    156.144302    -2.760905    -8.810649    -3.172851    6.912612    -1.681596    -2.858532    7.564008    2.685493    1.628016    9.097532    0.081339    2.045593    4.009504    14.583888    -0.137908    -46.093037    39.637890    -17.689648    -3.553928    6.604795    -9.760427    15.136611    6.503606    1.518879    7.879137    15.985407    -11.624855    48.811558    34.619228    24.858694    -0.264081    -9.106231    20.359030    -16.989202    -8.730239    -2.230929    7.724997    -4.156689    3.409676    -1.260586    12.562365    22.137335    -6.704367    -11.819833    -12.198240    -0.177551    -0.563489    0.197009    -24.257212    -48.661289    -15.358249    16.037621    49.447945    -7.842037    23.590467    15.341740    -0.907580    0.729584    -2.296126    -0.791636    
-11.346976    85.395523    102.871346    1.751097    -9.933572    155.238068    -2.564997    -8.654687    -3.219674    6.964552    -1.714598    -2.921174    7.622380    2.785138    1.995218    8.862999    0.322080    2.375254    4.049637    14.426693    -0.078190    -45.784805    38.414791    -17.737946    -3.243304    6.368025    -9.920389    15.688555    6.278815    1.393176    7.821285    16.067886    -11.621307    48.652840    34.419289    24.762508    -0.086809    -8.979368    20.046795    -16.707800    -8.639912    -2.234885    7.601230    -3.901343    3.476554    -1.324561    12.392984    22.930073    -6.632478    -11.727297    -12.208200    -0.139682    -0.593220    0.154998    -25.655970    -50.559307    -17.339468    17.195869    51.721359    -8.584354    23.438295    15.145859    -1.241223    0.883978    -2.110834    -0.958908    
-11.703263    85.473328    102.896919    1.882531    -9.879292    154.405228    -2.368606    -8.491561    -3.267178    7.007951    -1.729385    -2.985383    7.676337    2.881067    2.358659    8.638262    0.529215    2.706305    4.081380    14.263832    -0.027799    -45.475929    37.169613    -17.811474    -2.907182    6.084072    -10.134849    16.295107    6.005420    1.249574    7.768424    16.145288    -11.614474    48.496189    34.207821    24.664150    0.083063    -8.877319    19.733356    -16.446154    -8.569675    -2.253761    7.498415    -3.695177    3.535499    -1.403790    12.320824    23.671814    -6.571503    -11.653464    -12.236668    -0.094512    -0.637723    0.104884    -27.268452    -52.401718    -19.427191    18.610878    53.968884    -9.551583    23.209326    14.873712    -1.538993    1.007068    -1.955572    -1.092190    
-12.046910    85.539154    102.916763    2.024362    -9.808803    153.646790    -2.172404    -8.321331    -3.313253    7.041872    -1.723482    -3.049114    7.725523    2.973536    2.713530    8.426367    0.703169    3.033743    4.104902    14.097862    0.008997    -45.157742    35.927094    -17.920767    -2.547631    5.751985    -10.401966    16.943445    5.683069    1.093161    7.722131    16.211777    -11.602932    48.347572    33.987942    24.559166    0.242268    -8.804356    19.414286    -16.211882    -8.522821    -2.290519    7.422476    -3.542167    3.598487    -1.502857    12.357743    24.352160    -6.520627    -11.601876    -12.284871    -0.044690    -0.697612    0.049600    -29.112925    -54.176334    -21.643993    20.320192    56.176109    -10.782248    22.914736    14.541300    -1.796948    1.100157    -1.828494    -1.192932    
-12.375151    85.591675    102.931618    2.177285    -9.721866    152.965622    -1.977546    -8.145115    -3.355515    7.065431    -1.695249    -3.110009    7.768857    3.062660    3.053444    8.231021    0.844724    3.351345    4.120803    13.930723    0.028354    -44.826836    34.715370    -18.071863    -2.169577    5.375758    -10.715422    17.615961    5.316684    0.931313    7.683492    16.264000    -11.586337    48.213188    33.760574    24.446806    0.388681    -8.761570    19.086699    -16.011578    -8.500051    -2.345420    7.378809    -3.445732    3.677031    -1.624375    12.512422    24.961670    -6.480669    -11.574664    -12.355678    0.006566    -0.773044    -0.007289    -31.192930    -55.861561    -24.002150    22.346487    58.315804    -12.304878    22.568598    14.166835    -2.011218    1.165063    -1.728103    -1.263130    
-12.696281    85.631546    102.942535    2.347318    -9.615861    152.341324    -1.777803    -7.958338    -3.393418    7.078121    -1.643021    -3.168105    7.807656    3.152218    3.384157    8.047523    0.959976    3.663914    4.129870    13.757026    0.027731    -44.472736    33.517151    -18.271412    -1.765532    4.950563    -11.077782    18.318827    4.903301    0.768741    7.652861    16.303320    -11.564045    48.092571    33.517548    24.325294    0.525203    -8.747171    18.736708    -15.843084    -8.500053    -2.418971    7.371141    -3.405471    3.783230    -1.774705    12.797183    25.515144    -6.451708    -11.571744    -12.455073    0.057841    -0.867567    -0.064217    -33.584896    -57.491386    -26.600792    24.783834    60.432064    -14.203382    22.172995    13.754298    -2.186956    1.205777    -1.649958    -1.307127    
-12.997371    85.656487    102.949593    2.530011    -9.494368    151.795975    -1.579520    -7.768144    -3.424117    7.078353    -1.568345    -3.219830    7.839379    3.240598    3.689924    7.884889    1.046919    3.956392    4.132121    13.580878    0.004197    -44.110600    32.389553    -18.511143    -1.352878    4.501269    -11.469150    19.013641    4.468992    0.618962    7.631752    16.329590    -11.536771    47.993961    33.265381    24.201460    0.646389    -8.759330    18.373737    -15.714636    -8.520634    -2.506936    7.403884    -3.424544    3.921050    -1.949498    13.208647    25.993046    -6.436970    -11.592314    -12.584581    0.105335    -0.979320    -0.116969    -36.212460    -58.990547    -29.369719    27.579990    62.429680    -16.448866    21.753157    13.330952    -2.316319    1.223019    -1.596251    -1.325718    
